<svg width="1440" height="974" viewBox="0 0 1440 974" fill="none" xmlns="http://www.w3.org/2000/svg">
<rect x="1203.96" y="283.315" width="138.949" height="138.949" transform="rotate(-72.2811 1203.96 283.315)" stroke="#1400FF" stroke-width="2"/>
<rect x="1295.94" y="140.14" width="138.949" height="138.949" transform="rotate(47.7189 1295.94 140.14)" stroke="white" stroke-width="2"/>
<rect x="1373.94" y="291.388" width="138.949" height="138.949" transform="rotate(167.719 1373.94 291.388)" stroke="white" stroke-width="2"/>
<rect x="1010.66" y="127.835" width="89.0581" height="89.0581" transform="rotate(-72.2811 1010.66 127.835)" stroke="#1400FF" stroke-width="2"/>
<rect x="1069.62" y="36.0681" width="89.0581" height="89.0581" transform="rotate(47.7189 1069.62 36.0681)" stroke="white" stroke-width="2"/>
<rect x="1119.61" y="133.009" width="89.0581" height="89.0581" transform="rotate(167.719 1119.61 133.009)" stroke="white" stroke-width="2"/>
<rect x="70.6033" y="617.584" width="191.875" height="191.875" transform="rotate(71.5565 70.6033 617.584)" stroke="#1400FF" stroke-width="2"/>
<rect x="84.7177" y="852.157" width="191.875" height="191.875" transform="rotate(-168.444 84.7177 852.157)" stroke="white" stroke-width="2"/>
<rect x="-125.486" y="747.095" width="191.875" height="191.875" transform="rotate(-48.4435 -125.486 747.095)" stroke="white" stroke-width="2"/>
<rect x="361.675" y="508.755" width="123.25" height="123.25" transform="rotate(71.5565 361.675 508.755)" stroke="#1400FF" stroke-width="2"/>
<rect x="370.741" y="659.432" width="123.25" height="123.25" transform="rotate(-168.444 370.741 659.432)" stroke="white" stroke-width="2"/>
<rect x="235.718" y="591.946" width="123.25" height="123.25" transform="rotate(-48.4435 235.718 591.946)" stroke="white" stroke-width="2"/>
<rect x="581.334" y="693.813" width="172.375" height="172.375" transform="rotate(71.5565 581.334 693.813)" stroke="#1400FF" stroke-width="2"/>
<rect x="594.014" y="904.547" width="172.375" height="172.375" transform="rotate(-168.444 594.014 904.547)" stroke="white" stroke-width="2"/>
<rect x="405.173" y="810.162" width="172.375" height="172.375" transform="rotate(-48.4435 405.173 810.162)" stroke="white" stroke-width="2"/>
<path d="M177.512 66.2727L181.695 73.924L185.946 66.2727H191.114L184.866 76.6364L191.222 87H186.081L181.695 79.5376L177.35 87H172.168L178.484 76.6364L172.33 66.2727H177.512ZM200.365 87.4183C199.052 87.4183 197.869 87.1844 196.816 86.7166C195.772 86.2398 194.945 85.5381 194.333 84.6115C193.73 83.6849 193.429 82.5424 193.429 81.1839C193.429 80.0144 193.645 79.0473 194.077 78.2827C194.508 77.518 195.098 76.9062 195.844 76.4474C196.591 75.9886 197.432 75.6423 198.368 75.4084C199.312 75.1655 200.289 74.9901 201.296 74.8821C202.511 74.7562 203.496 74.6437 204.251 74.5447C205.007 74.4368 205.556 74.2749 205.898 74.0589C206.249 73.834 206.424 73.4877 206.424 73.0199V72.9389C206.424 71.9223 206.123 71.1352 205.52 70.5774C204.917 70.0196 204.049 69.7408 202.915 69.7408C201.719 69.7408 200.77 70.0017 200.068 70.5234C199.375 71.0452 198.908 71.6615 198.665 72.3722L194.104 71.7244C194.463 70.465 195.057 69.4124 195.885 68.5668C196.713 67.7121 197.725 67.0734 198.921 66.6506C200.118 66.2188 201.44 66.0028 202.888 66.0028C203.887 66.0028 204.881 66.1198 205.871 66.3537C206.86 66.5876 207.764 66.9744 208.583 67.5142C209.402 68.045 210.058 68.7692 210.553 69.6868C211.057 70.6044 211.309 71.7514 211.309 73.1278V87H206.613V84.1527H206.451C206.154 84.7285 205.736 85.2682 205.196 85.772C204.665 86.2668 203.995 86.6671 203.185 86.973C202.385 87.2699 201.445 87.4183 200.365 87.4183ZM201.633 83.8288C202.614 83.8288 203.464 83.6354 204.184 83.2486C204.904 82.8527 205.457 82.331 205.844 81.6832C206.24 81.0355 206.437 80.3293 206.437 79.5646V77.1222C206.285 77.2481 206.024 77.3651 205.655 77.473C205.295 77.581 204.89 77.6754 204.44 77.7564C203.99 77.8374 203.545 77.9093 203.104 77.9723C202.664 78.0353 202.281 78.0893 201.957 78.1342C201.229 78.2332 200.576 78.3951 200.001 78.62C199.425 78.8449 198.971 79.1598 198.638 79.5646C198.305 79.9605 198.138 80.4732 198.138 81.103C198.138 82.0026 198.467 82.6818 199.124 83.1406C199.78 83.5994 200.617 83.8288 201.633 83.8288ZM232.414 58.608L234.115 61.7656C233.512 62.2874 232.837 62.6652 232.09 62.8991C231.344 63.133 230.467 63.286 229.459 63.358C228.46 63.4209 227.273 63.4659 225.897 63.4929C224.349 63.5289 223.085 63.8213 222.105 64.37C221.124 64.9188 220.373 65.7509 219.851 66.8665C219.329 67.973 218.987 69.3854 218.826 71.1037H219.055C219.703 69.8352 220.611 68.8681 221.781 68.2024C222.95 67.5367 224.322 67.2038 225.897 67.2038C227.615 67.2038 229.131 67.5907 230.444 68.3643C231.767 69.129 232.797 70.2401 233.534 71.6974C234.281 73.1548 234.654 74.9181 234.654 76.9872C234.654 79.1193 234.254 80.968 233.453 82.5334C232.653 84.0897 231.515 85.2907 230.039 86.1364C228.573 86.982 226.832 87.4048 224.817 87.4048C222.811 87.4048 221.066 86.9685 219.581 86.0959C218.106 85.2143 216.963 83.9143 216.154 82.196C215.353 80.4687 214.953 78.3411 214.953 75.8132V73.951C214.953 69.075 215.861 65.4361 217.679 63.0341C219.496 60.6321 222.19 59.4086 225.762 59.3636C226.823 59.3456 227.772 59.3411 228.609 59.3501C229.455 59.3591 230.192 59.3187 230.822 59.2287C231.452 59.1387 231.983 58.9318 232.414 58.608ZM224.844 83.4915C225.843 83.4915 226.706 83.2351 227.435 82.7223C228.164 82.2005 228.721 81.4628 229.108 80.5092C229.504 79.5556 229.702 78.4266 229.702 77.1222C229.702 75.8357 229.504 74.7427 229.108 73.843C228.712 72.9344 228.15 72.2417 227.421 71.7649C226.693 71.2881 225.825 71.0497 224.817 71.0497C224.061 71.0497 223.382 71.1847 222.779 71.4545C222.177 71.7244 221.664 72.1203 221.241 72.642C220.818 73.1638 220.494 73.7981 220.269 74.5447C220.045 75.2914 219.923 76.1506 219.905 77.1222C219.905 79.0743 220.346 80.6262 221.228 81.7777C222.109 82.9202 223.315 83.4915 224.844 83.4915Z" fill="white"/>
<rect x="100.731" y="124.018" width="72.5" height="72.5" transform="rotate(-120 100.731 124.018)" stroke="#1400FF" stroke-width="2"/>
<rect x="77.75" y="38.25" width="72.5" height="72.5" stroke="white" stroke-width="2"/>
<rect x="163.518" y="61.2313" width="72.5" height="72.5" transform="rotate(120 163.518 61.2313)" stroke="white" stroke-width="2"/>
<path d="M104.732 60.3636V88H99.7259V60.3636H104.732ZM108.521 64.5604V60.3636H130.571V64.5604H122.029V88H117.063V64.5604H108.521Z" fill="white"/>
</svg>
