<svg width="143" height="109" viewBox="0 0 143 109" fill="none" xmlns="http://www.w3.org/2000/svg">
<path d="M141.349 42.3926L142.602 44.7192C142.158 45.1036 141.661 45.382 141.111 45.5543C140.56 45.7267 139.914 45.8394 139.172 45.8924C138.436 45.9388 137.561 45.9719 136.547 45.9918C135.407 46.0183 134.475 46.2337 133.753 46.6381C133.03 47.0424 132.477 47.6555 132.093 48.4775C131.708 49.2928 131.456 50.3334 131.337 51.5994H131.506C131.983 50.6648 132.653 49.9523 133.514 49.4618C134.376 48.9713 135.387 48.726 136.547 48.726C137.813 48.726 138.93 49.011 139.898 49.5811C140.872 50.1445 141.631 50.9631 142.174 52.0369C142.725 53.1107 143 54.4099 143 55.9344C143 57.5054 142.705 58.8675 142.115 60.0208C141.525 61.1676 140.686 62.0525 139.599 62.6755C138.519 63.2986 137.236 63.6101 135.751 63.6101C134.273 63.6101 132.987 63.2887 131.894 62.6457C130.807 61.9961 129.965 61.0383 129.368 59.7723C128.778 58.4996 128.483 56.932 128.483 55.0694V53.6973C128.483 50.1047 129.153 47.4235 130.492 45.6538C131.831 43.884 133.816 42.9825 136.447 42.9494C137.23 42.9361 137.929 42.9328 138.545 42.9394C139.168 42.9461 139.712 42.9162 140.176 42.8499C140.64 42.7837 141.031 42.6312 141.349 42.3926ZM135.771 60.7268C136.507 60.7268 137.143 60.5379 137.68 60.16C138.217 59.7756 138.628 59.2321 138.913 58.5295C139.205 57.8268 139.351 56.995 139.351 56.0339C139.351 55.086 139.205 54.2806 138.913 53.6178C138.622 52.9483 138.207 52.4379 137.67 52.0866C137.133 51.7353 136.494 51.5597 135.751 51.5597C135.195 51.5597 134.694 51.6591 134.25 51.858C133.806 52.0568 133.428 52.3485 133.117 52.7329C132.805 53.1174 132.567 53.5847 132.401 54.1348C132.235 54.685 132.146 55.318 132.132 56.0339C132.132 57.4722 132.457 58.6156 133.107 59.4641C133.756 60.3059 134.645 60.7268 135.771 60.7268Z" fill="white"/>
<path d="M117.736 63.6193C116.768 63.6193 115.896 63.4469 115.121 63.1023C114.352 62.7509 113.742 62.2339 113.291 61.5512C112.847 60.8685 112.625 60.0267 112.625 59.0258C112.625 58.1641 112.784 57.4515 113.102 56.8881C113.42 56.3247 113.855 55.874 114.405 55.5359C114.955 55.1979 115.575 54.9427 116.264 54.7703C116.96 54.5914 117.679 54.4621 118.422 54.3826C119.316 54.2898 120.042 54.2069 120.599 54.134C121.156 54.0545 121.56 53.9352 121.812 53.7761C122.07 53.6104 122.2 53.3552 122.2 53.0105V52.9508C122.2 52.2018 121.978 51.6218 121.534 51.2109C121.089 50.7999 120.45 50.5944 119.615 50.5944C118.733 50.5944 118.034 50.7867 117.517 51.1711C117.006 51.5556 116.662 52.0096 116.483 52.5332L113.122 52.056C113.387 51.128 113.825 50.3525 114.435 49.7294C115.044 49.0997 115.79 48.6291 116.672 48.3176C117.553 47.9994 118.528 47.8403 119.595 47.8403C120.331 47.8403 121.063 47.9265 121.792 48.0988C122.521 48.2712 123.187 48.5562 123.791 48.9539C124.394 49.345 124.878 49.8786 125.242 50.5547C125.613 51.2308 125.799 52.0759 125.799 53.09V63.311H122.339V61.2132H122.22C122.001 61.6374 121.693 62.0351 121.295 62.4063C120.904 62.7708 120.41 63.0658 119.814 63.2912C119.224 63.5099 118.531 63.6193 117.736 63.6193ZM118.67 60.9745C119.393 60.9745 120.019 60.832 120.549 60.547C121.08 60.2554 121.487 59.8709 121.772 59.3937C122.064 58.9164 122.21 58.3961 122.21 57.8327V56.0331C122.097 56.1258 121.905 56.212 121.633 56.2916C121.368 56.3711 121.07 56.4407 120.738 56.5004C120.407 56.56 120.079 56.613 119.754 56.6594C119.429 56.7058 119.147 56.7456 118.909 56.7787C118.372 56.8517 117.891 56.971 117.467 57.1367C117.043 57.3024 116.708 57.5344 116.463 57.8327C116.218 58.1243 116.095 58.5021 116.095 58.9661C116.095 59.629 116.337 60.1294 116.821 60.4675C117.305 60.8055 117.921 60.9745 118.67 60.9745Z" fill="white"/>
<path d="M100.897 48.04L103.979 53.6775L107.111 48.04H110.919L106.316 55.676L110.999 63.3119H107.211L103.979 57.8136L100.778 63.3119H96.96L101.613 55.676L97.0793 48.04H100.897Z" fill="white"/>
<path fill-rule="evenodd" clip-rule="evenodd" d="M18.6228 44.5961L44.595 89.5813L89.5802 63.609L63.608 18.6238L18.6228 44.5961ZM44.0557 91.5942L91.5932 64.1484L64.1474 16.6109L16.6098 44.0567L44.0557 91.5942Z" fill="#1400FF"/>
<path fill-rule="evenodd" clip-rule="evenodd" d="M80.0511 28.6287H28.6287V80.0511H80.0511V28.6287ZM27.1699 27.1699V81.5099H81.5099V27.1699H27.1699Z" fill="white"/>
<path fill-rule="evenodd" clip-rule="evenodd" d="M63.6081 89.5807L89.5803 44.5955L44.5951 18.6233L18.6229 63.6085L63.6081 89.5807ZM91.5933 44.0562L44.0557 16.6103L16.6099 64.1479L64.1474 91.5937L91.5933 44.0562Z" fill="white"/>
<path d="M50.0654 46.7782V43.686H66.3117V46.7782H60.018V64.0485H56.3591V46.7782H50.0654Z" fill="white"/>
<path d="M47.2737 43.686V64.0485H43.585V43.686H47.2737Z" fill="white"/>
</svg>
