<svg width="1440" height="338" viewBox="0 0 1440 338" fill="none" xmlns="http://www.w3.org/2000/svg">
<rect x="-13" width="1453" height="300" fill="#1E1E1E"/>
<rect x="1393.76" y="274.928" width="191.875" height="191.875" transform="rotate(-120 1393.76 274.928)" stroke="#1400FF" stroke-width="2"/>
<rect x="1332.94" y="47.9375" width="191.875" height="191.875" stroke="white" stroke-width="2"/>
<rect x="1559.93" y="108.759" width="191.875" height="191.875" transform="rotate(120 1559.93 108.759)" stroke="white" stroke-width="2"/>
<path d="M177.512 62.2727L181.695 69.924L185.946 62.2727H191.114L184.866 72.6364L191.222 83H186.081L181.695 75.5376L177.35 83H172.168L178.484 72.6364L172.33 62.2727H177.512ZM200.365 83.4183C199.052 83.4183 197.869 83.1844 196.816 82.7166C195.772 82.2398 194.945 81.5381 194.333 80.6115C193.73 79.6849 193.429 78.5424 193.429 77.1839C193.429 76.0144 193.645 75.0473 194.077 74.2827C194.508 73.518 195.098 72.9062 195.844 72.4474C196.591 71.9886 197.432 71.6423 198.368 71.4084C199.312 71.1655 200.289 70.9901 201.296 70.8821C202.511 70.7562 203.496 70.6437 204.251 70.5447C205.007 70.4368 205.556 70.2749 205.898 70.0589C206.249 69.834 206.424 69.4877 206.424 69.0199V68.9389C206.424 67.9223 206.123 67.1352 205.52 66.5774C204.917 66.0196 204.049 65.7408 202.915 65.7408C201.719 65.7408 200.77 66.0017 200.068 66.5234C199.375 67.0452 198.908 67.6615 198.665 68.3722L194.104 67.7244C194.463 66.465 195.057 65.4124 195.885 64.5668C196.713 63.7121 197.725 63.0734 198.921 62.6506C200.118 62.2188 201.44 62.0028 202.888 62.0028C203.887 62.0028 204.881 62.1198 205.871 62.3537C206.86 62.5876 207.764 62.9744 208.583 63.5142C209.402 64.045 210.058 64.7692 210.553 65.6868C211.057 66.6044 211.309 67.7514 211.309 69.1278V83H206.613V80.1527H206.451C206.154 80.7285 205.736 81.2682 205.196 81.772C204.665 82.2668 203.995 82.6671 203.185 82.973C202.385 83.2699 201.445 83.4183 200.365 83.4183ZM201.633 79.8288C202.614 79.8288 203.464 79.6354 204.184 79.2486C204.904 78.8527 205.457 78.331 205.844 77.6832C206.24 77.0355 206.437 76.3293 206.437 75.5646V73.1222C206.285 73.2481 206.024 73.3651 205.655 73.473C205.295 73.581 204.89 73.6754 204.44 73.7564C203.99 73.8374 203.545 73.9093 203.104 73.9723C202.664 74.0353 202.281 74.0893 201.957 74.1342C201.229 74.2332 200.576 74.3951 200.001 74.62C199.425 74.8449 198.971 75.1598 198.638 75.5646C198.305 75.9605 198.138 76.4732 198.138 77.103C198.138 78.0026 198.467 78.6818 199.124 79.1406C199.78 79.5994 200.617 79.8288 201.633 79.8288ZM232.414 54.608L234.115 57.7656C233.512 58.2874 232.837 58.6652 232.09 58.8991C231.344 59.133 230.467 59.286 229.459 59.358C228.46 59.4209 227.273 59.4659 225.897 59.4929C224.349 59.5289 223.085 59.8213 222.105 60.37C221.124 60.9188 220.373 61.7509 219.851 62.8665C219.329 63.973 218.987 65.3854 218.826 67.1037H219.055C219.703 65.8352 220.611 64.8681 221.781 64.2024C222.95 63.5367 224.322 63.2038 225.897 63.2038C227.615 63.2038 229.131 63.5907 230.444 64.3643C231.767 65.129 232.797 66.2401 233.534 67.6974C234.281 69.1548 234.654 70.9181 234.654 72.9872C234.654 75.1193 234.254 76.968 233.453 78.5334C232.653 80.0897 231.515 81.2907 230.039 82.1364C228.573 82.982 226.832 83.4048 224.817 83.4048C222.811 83.4048 221.066 82.9685 219.581 82.0959C218.106 81.2143 216.963 79.9143 216.154 78.196C215.353 76.4687 214.953 74.3411 214.953 71.8132V69.951C214.953 65.075 215.861 61.4361 217.679 59.0341C219.496 56.6321 222.19 55.4086 225.762 55.3636C226.823 55.3456 227.772 55.3411 228.609 55.3501C229.455 55.3591 230.192 55.3187 230.822 55.2287C231.452 55.1387 231.983 54.9318 232.414 54.608ZM224.844 79.4915C225.843 79.4915 226.706 79.2351 227.435 78.7223C228.164 78.2005 228.721 77.4628 229.108 76.5092C229.504 75.5556 229.702 74.4266 229.702 73.1222C229.702 71.8357 229.504 70.7427 229.108 69.843C228.712 68.9344 228.15 68.2417 227.421 67.7649C226.693 67.2881 225.825 67.0497 224.817 67.0497C224.061 67.0497 223.382 67.1847 222.779 67.4545C222.177 67.7244 221.664 68.1203 221.241 68.642C220.818 69.1638 220.494 69.7981 220.269 70.5447C220.045 71.2914 219.923 72.1506 219.905 73.1222C219.905 75.0743 220.346 76.6262 221.228 77.7777C222.109 78.9202 223.315 79.4915 224.844 79.4915Z" fill="white"/>
<rect x="100.731" y="120.018" width="72.5" height="72.5" transform="rotate(-120 100.731 120.018)" stroke="#1400FF" stroke-width="2"/>
<rect x="77.75" y="34.25" width="72.5" height="72.5" stroke="white" stroke-width="2"/>
<rect x="163.518" y="57.2313" width="72.5" height="72.5" transform="rotate(120 163.518 57.2313)" stroke="white" stroke-width="2"/>
<path d="M104.732 56.3636V84H99.7259V56.3636H104.732ZM108.521 60.5604V56.3636H130.571V60.5604H122.029V84H117.063V60.5604H108.521Z" fill="white"/>
<rect x="400.693" y="197.431" width="123.25" height="123.25" transform="rotate(-120 400.693 197.431)" stroke="#1400FF" stroke-width="2"/>
<rect x="361.625" y="51.625" width="123.25" height="123.25" stroke="white" stroke-width="2"/>
<rect x="507.431" y="90.6932" width="123.25" height="123.25" transform="rotate(120 507.431 90.6932)" stroke="white" stroke-width="2"/>
<rect x="840.827" y="75.1091" width="172.375" height="172.375" transform="rotate(-120 840.827 75.1091)" stroke="#1400FF" stroke-width="2"/>
<rect x="786.188" y="-128.812" width="172.375" height="172.375" stroke="white" stroke-width="2"/>
<rect x="990.109" y="-74.1725" width="172.375" height="172.375" transform="rotate(120 990.109 -74.1725)" stroke="white" stroke-width="2"/>
</svg>
